<?xml version="1.0" encoding="UTF-8" standalone="no"?>
<!-- Created with Inkscape (http://www.inkscape.org/) -->

<svg
   width="152"
   height="96"
   viewBox="0 0 40.216665 25.400001"
   version="1.1"
   id="svg5"
   inkscape:version="1.1.2 (0a00cf5339, 2022-02-04, custom)"
   sodipodi:docname="gplv3.svg"
   xmlns:inkscape="http://www.inkscape.org/namespaces/inkscape"
   xmlns:sodipodi="http://sodipodi.sourceforge.net/DTD/sodipodi-0.dtd"
   xmlns="http://www.w3.org/2000/svg"
   xmlns:svg="http://www.w3.org/2000/svg"
   xmlns:rdf="http://www.w3.org/1999/02/22-rdf-syntax-ns#"
   xmlns:cc="http://creativecommons.org/ns#">
  <sodipodi:namedview
     id="namedview7"
     pagecolor="#ffffff"
     bordercolor="#111111"
     borderopacity="1"
     inkscape:pageshadow="0"
     inkscape:pageopacity="0"
     inkscape:pagecheckerboard="1"
     inkscape:document-units="mm"
     showgrid="true"
     units="px"
     fit-margin-top="3"
     lock-margins="true"
     fit-margin-left="3"
     fit-margin-right="3"
     fit-margin-bottom="3"
     inkscape:zoom="5.6568542"
     inkscape:cx="47.994873"
     inkscape:cy="40.216699"
     inkscape:window-width="1920"
     inkscape:window-height="1003"
     inkscape:window-x="0"
     inkscape:window-y="0"
     inkscape:window-maximized="1"
     inkscape:current-layer="layer1">
    <inkscape:grid
       type="xygrid"
       id="grid1361"
       empspacing="1"
       originx="-1.3229165"
       originy="-1.3229166" />
  </sodipodi:namedview>
  <defs
     id="defs2" />
  <g
     inkscape:label="Layer 1"
     inkscape:groupmode="layer"
     id="layer1"
     transform="translate(-1.3229166,-1.3229166)">
    <rect
       style="fill:#6a99e0;fill-opacity:1;stroke:none;stroke-width:0.116891;stroke-linecap:round;stroke-linejoin:round"
       id="rect846"
       width="38.629166"
       height="23.8125"
       x="2.1166666"
       y="2.1166666"
       rx="5.827054"
       ry="5.827054" />
    <g
       aria-label="GPL v3.0 OR LATER"
       id="text6593"
       style="font-size:5.64444px;line-height:1.25;font-family:'IBM Plex Sans';-inkscape-font-specification:'IBM Plex Sans';letter-spacing:0px;fill:#112c55;stroke-width:0.264583">
      <path
         d="m 11.866748,11.889318 h -0.01693 q -0.07338,0.276577 -0.361244,0.462844 -0.282222,0.180622 -0.733778,0.180622 -0.361244,0 -0.666043,-0.129822 Q 9.7895942,12.267495 9.5751055,12.013495 9.3606168,11.753851 9.2364391,11.375674 9.1179058,10.991852 9.1179058,10.495141 q 0,-0.491066 0.1185333,-0.8692437 0.1185332,-0.3838219 0.3386664,-0.6378217 0.2201331,-0.2596443 0.5305775,-0.3951109 0.310444,-0.1354665 0.688622,-0.1354665 0.530577,0 0.886177,0.2370665 0.355599,0.2370664 0.54751,0.6265328 L 11.838526,9.558164 q -0.135467,-0.3160886 -0.4064,-0.4967107 -0.265288,-0.1806221 -0.637821,-0.1806221 -0.259645,0 -0.474133,0.095956 -0.214489,0.09031 -0.3725335,0.2596437 Q 9.7952386,9.4057641 9.710572,9.6428306 9.6259054,9.8798971 9.6259054,10.173408 v 0.637822 q 0,0.293511 0.084667,0.536222 0.084667,0.237066 0.2370665,0.406399 0.1580441,0.169333 0.3838211,0.265289 0.225778,0.09031 0.508,0.09031 0.2032,0 0.383822,-0.0508 0.186267,-0.05644 0.321733,-0.163689 0.141111,-0.107244 0.220133,-0.265288 0.07902,-0.163689 0.07902,-0.383822 v -0.389467 h -0.869243 v -0.417688 h 1.332088 v 2.026354 h -0.440267 z"
         id="path826" />
      <path
         d="M 13.238345,12.465051 V 8.5252315 H 14.8075 q 0.530577,0 0.812799,0.3047997 0.287867,0.2991554 0.287867,0.8240883 0,0.5249325 -0.287867,0.8297325 -0.282222,0.299156 -0.812799,0.299156 h -1.095022 v 1.682043 z m 0.474133,-2.099732 H 14.8075 q 0.282222,0 0.434622,-0.146755 0.158044,-0.146756 0.158044,-0.4176891 V 9.507364 q 0,-0.2709331 -0.158044,-0.4176885 Q 15.089722,8.94292 14.8075,8.94292 h -1.095022 z"
         id="path828" />
      <path
         d="M 16.658881,12.465051 V 8.5252315 h 0.474133 v 3.5221305 h 1.676399 v 0.417689 z"
         id="path830" />
      <path
         d="M 21.417141,12.465051 20.395498,9.5525196 h 0.451555 l 0.507999,1.4449764 0.316089,0.993422 h 0.02822 l 0.316089,-0.993422 0.519288,-1.4449764 h 0.434622 l -1.027288,2.9125314 z"
         id="path832" />
      <path
         d="m 24.544165,10.195986 q 0.400755,0 0.59831,-0.180622 0.2032,-0.1862669 0.2032,-0.4741333 v -0.039511 q 0,-0.3104442 -0.197555,-0.4628441 -0.191911,-0.1580443 -0.508,-0.1580443 -0.3048,0 -0.496711,0.1354666 Q 23.951498,9.14612 23.827321,9.3718976 L 23.477365,9.1009644 q 0.07338,-0.1185333 0.174978,-0.2314221 0.107244,-0.1185332 0.248355,-0.2088443 0.141111,-0.090311 0.327378,-0.1467554 0.186267,-0.056444 0.423333,-0.056444 0.248355,0 0.468489,0.067733 0.220133,0.062089 0.378177,0.1919109 0.163689,0.1241777 0.254,0.3104442 0.09596,0.1862666 0.09596,0.423333 0,0.191911 -0.06209,0.3443109 -0.05644,0.1523999 -0.158044,0.2652884 -0.1016,0.112889 -0.242711,0.191911 -0.135466,0.07902 -0.293511,0.118533 v 0.02258 q 0.158045,0.03387 0.3048,0.112889 0.1524,0.07338 0.265289,0.197555 0.118533,0.118534 0.186266,0.293511 0.07338,0.169333 0.07338,0.389467 0,0.253999 -0.09596,0.468488 -0.09596,0.208844 -0.270934,0.361244 -0.174977,0.146756 -0.423333,0.231422 -0.248355,0.08467 -0.54751,0.08467 -0.254,0 -0.451555,-0.05644 -0.197556,-0.05645 -0.349956,-0.1524 -0.1524,-0.09596 -0.270933,-0.214489 -0.112889,-0.118533 -0.2032,-0.248355 l 0.3556,-0.270934 q 0.07338,0.118534 0.158044,0.214489 0.09031,0.09596 0.197556,0.163689 0.107244,0.06773 0.242711,0.107244 0.135466,0.03387 0.316088,0.03387 0.417689,0 0.632178,-0.186267 0.214488,-0.191911 0.214488,-0.541866 v -0.04515 q 0,-0.349956 -0.214488,-0.536222 -0.21449,-0.191928 -0.632179,-0.191928 h -0.462844 v -0.412044 z"
         id="path834" />
      <path
         d="m 27.225275,12.532784 q -0.180622,0 -0.265289,-0.09031 -0.07902,-0.09031 -0.07902,-0.237067 v -0.07338 q 0,-0.146756 0.07902,-0.237067 0.08467,-0.09031 0.265289,-0.09031 0.180622,0 0.259644,0.09031 0.08467,0.09031 0.08467,0.237067 v 0.07338 q 0,0.146756 -0.08467,0.237067 -0.07902,0.09031 -0.259644,0.09031 z"
         id="path836" />
      <path
         d="m 29.686249,12.532784 q -0.705555,0 -1.032932,-0.536222 -0.321734,-0.536222 -0.321734,-1.501421 0,-0.9651992 0.321734,-1.501421 0.327377,-0.5362218 1.032932,-0.5362218 0.705555,0 1.027288,0.5362218 0.327378,0.5362218 0.327378,1.501421 0,0.965199 -0.327378,1.501421 -0.321733,0.536222 -1.027288,0.536222 z m 0,-0.412044 q 0.231422,0 0.395111,-0.09596 0.163689,-0.09596 0.265289,-0.270933 0.1016,-0.174977 0.146755,-0.412044 0.0508,-0.237066 0.0508,-0.524933 v -0.643466 q 0,-0.2878665 -0.0508,-0.5249329 -0.04516,-0.2370665 -0.146755,-0.4120442 -0.1016,-0.1749776 -0.265289,-0.2709331 -0.163689,-0.095955 -0.395111,-0.095955 -0.231422,0 -0.395111,0.095955 -0.163688,0.095956 -0.265288,0.2709331 -0.1016,0.1749777 -0.1524,0.4120442 -0.04516,0.2370664 -0.04516,0.5249329 v 0.643466 q 0,0.287867 0.04516,0.524933 0.0508,0.237067 0.1524,0.412044 0.1016,0.174978 0.265288,0.270933 0.163689,0.09596 0.395111,0.09596 z"
         id="path838" />
      <path
         d="m 10.78866,19.588334 q -0.383822,0 -0.694266,-0.129822 Q 9.7895942,19.323046 9.569461,19.069046 9.3549723,18.809401 9.2364391,18.431224 9.1179058,18.047402 9.1179058,17.550691 q 0,-0.49671 0.1185333,-0.874888 0.1185332,-0.378177 0.3330219,-0.637822 0.2201332,-0.259644 0.524933,-0.389466 0.310444,-0.135467 0.694266,-0.135467 0.378178,0 0.688622,0.135467 0.310444,0.129822 0.524933,0.389466 0.220133,0.259645 0.338666,0.637822 0.118533,0.378178 0.118533,0.874888 0,0.496711 -0.118533,0.880533 -0.118533,0.378177 -0.338666,0.637822 -0.214489,0.254 -0.524933,0.389466 -0.310444,0.129822 -0.688622,0.129822 z m 0,-0.423333 q 0.254,0 0.468489,-0.09031 0.214488,-0.09031 0.366888,-0.259644 0.158045,-0.169333 0.242711,-0.4064 0.08467,-0.237066 0.08467,-0.530577 v -0.654755 q 0,-0.293511 -0.08467,-0.530578 -0.08467,-0.237066 -0.242711,-0.406399 -0.1524,-0.169334 -0.366888,-0.259645 -0.214489,-0.09031 -0.468489,-0.09031 -0.254,0 -0.468488,0.09031 -0.214489,0.09031 -0.3725335,0.259645 -0.1523999,0.169333 -0.2370665,0.406399 -0.084667,0.237067 -0.084667,0.530578 v 0.654755 q 0,0.293511 0.084667,0.530577 0.084667,0.237067 0.2370665,0.4064 0.1580445,0.169333 0.3725335,0.259644 0.214488,0.09031 0.468488,0.09031 z"
         id="path840" />
      <path
         d="m 13.785859,19.520601 h -0.474133 v -3.939819 h 1.569154 q 0.519289,0 0.807155,0.287866 0.293511,0.287867 0.293511,0.829733 0,0.434622 -0.2032,0.716844 -0.197555,0.276577 -0.587021,0.366888 l 0.90311,1.738488 h -0.536222 l -0.85231,-1.693332 h -0.920044 z m 1.095021,-2.099732 q 0.282222,0 0.434622,-0.146755 0.158045,-0.146756 0.158045,-0.417689 v -0.293511 q 0,-0.270933 -0.158045,-0.417688 -0.1524,-0.146756 -0.434622,-0.146756 h -1.095021 v 1.422399 z"
         id="path842" />
      <path
         d="m 18.256252,19.520601 v -3.939819 h 0.474133 v 3.52213 h 1.676399 v 0.417689 z"
         id="path844" />
      <path
         d="M 23.657973,19.520601 23.262862,18.357846 H 21.67113 l -0.39511,1.162755 h -0.479778 l 1.377244,-3.939819 h 0.603955 l 1.377243,3.939819 z m -1.179688,-3.499553 h -0.02822 l -0.666044,1.91911 h 1.36031 z"
         id="path846" />
      <path
         d="m 25.768995,15.99847 v 3.522131 H 25.294862 V 15.99847 h -1.253066 v -0.417688 h 2.980265 v 0.417688 z"
         id="path848" />
      <path
         d="m 27.671174,19.520601 v -3.939819 h 2.404532 v 0.417688 h -1.930399 v 1.320799 h 1.81751 v 0.417689 h -1.81751 v 1.365954 h 1.930399 v 0.417689 z"
         id="path850" />
      <path
         d="m 31.436018,19.520601 h -0.474133 v -3.939819 h 1.569154 q 0.519288,0 0.807155,0.287866 0.293511,0.287867 0.293511,0.829733 0,0.434622 -0.2032,0.716844 -0.197555,0.276577 -0.587022,0.366888 l 0.903111,1.738488 h -0.536222 l -0.852311,-1.693332 h -0.920043 z m 1.095021,-2.099732 q 0.282222,0 0.434622,-0.146755 0.158044,-0.146756 0.158044,-0.417689 v -0.293511 q 0,-0.270933 -0.158044,-0.417688 -0.1524,-0.146756 -0.434622,-0.146756 h -1.095021 v 1.422399 z"
         id="path852" />
    </g>
  </g>
  <metadata
     id="metadata838">
    <rdf:RDF>
      <cc:License
         rdf:about="http://creativecommons.org/publicdomain/zero/1.0/">
        <cc:permits
           rdf:resource="http://creativecommons.org/ns#Reproduction" />
        <cc:permits
           rdf:resource="http://creativecommons.org/ns#Distribution" />
        <cc:permits
           rdf:resource="http://creativecommons.org/ns#DerivativeWorks" />
      </cc:License>
      <cc:Work
         rdf:about="">
        <cc:license
           rdf:resource="http://creativecommons.org/publicdomain/zero/1.0/" />
      </cc:Work>
    </rdf:RDF>
  </metadata>
</svg>
